<svg xmlns="http://www.w3.org/2000/svg" version="1.1" xmlns:xlink="http://www.w3.org/1999/xlink" xmlns:svgjs="http://svgjs.dev/svgjs" width="128" height="128" viewBox="0 0 128 128"><g transform="matrix(0.8046875,0,0,0.8046875,12.760752631578946,32.674386161365184)"><svg viewBox="0 0 95 58" data-background-color="#071e3e" preserveAspectRatio="xMidYMid meet" height="78" width="128" xmlns="http://www.w3.org/2000/svg" xmlns:xlink="http://www.w3.org/1999/xlink"><g id="tight-bounds" transform="matrix(1,0,0,1,-0.24049999999999727,-0.05285572093292501)"><svg viewBox="0 0 95.481 58.10571144186584" height="58.10571144186584" width="95.481"><g><svg viewBox="0 0 95.481 58.10571144186584" height="58.10571144186584" width="95.481"><g><svg viewBox="0 0 95.481 58.10571144186584" height="58.10571144186584" width="95.481"><g id="textblocktransform"><svg viewBox="0 0 95.481 58.10571144186584" height="58.10571144186584" width="95.481" id="textblock"><g><svg viewBox="0 0 95.481 58.10571144186584" height="58.10571144186584" width="95.481"><g><svg viewBox="0 0 95.481 58.10571144186584" height="58.10571144186584" width="95.481"><g><svg xmlns="http://www.w3.org/2000/svg" xmlns:xlink="http://www.w3.org/1999/xlink" version="1.1" x="0" y="0" viewBox="2.232 19.937632457089787 95.768 58.2803675429102" enable-background="new 0 0 100 100" xml:space="preserve" height="58.10571144186584" width="95.481" class="icon-icon-0" data-fill-palette-color="accent" id="icon-0"><g fill="#4686e7" data-fill-palette-color="accent"><path d="M7.817 64.722l0.061-0.052c0.667-0.564 6.766-5.639 15.972-10.553 9.207-4.917 21.513-9.654 34.564-9.65 1.247 0 2.501 0.043 3.76 0.133 8.249 0.588 14.364 2.649 18.513 5.226 4.154 2.573 6.811 5.659 7.313 8.219l0.673-0.235-0.639-0.366-0.002 0.003c-0.056 0.177-0.966 2.92-5.321 7.554-4.365 4.634-11.494 9.413-23.009 10.24-5.496 0.391-10.658 0.577-15.433 0.577-9.529 0-17.525-0.744-23.551-2.065-3.012-0.657-5.531-1.461-7.488-2.366-1.959-0.902-3.344-1.913-4.13-2.902-0.414-0.517-1.169-0.602-1.687-0.188-0.519 0.415-0.603 1.17-0.188 1.688 1.134 1.411 2.825 2.573 4.997 3.58 3.262 1.505 7.643 2.654 13.03 3.444 5.386 0.787 11.775 1.208 19.017 1.209 4.837 0 10.055-0.184 15.604-0.579C72.188 76.772 80.339 73.109 85 68.034c4.669-5.076 8.87-10.325 8.905-10.432L94 57.306 93.964 57c-1.178-5.767-7.462-10.17-12.011-13-5.232-3.246-9.786-5.201-19.022-5.862C61.613 38.044 60.303 38 59 38c-14.076 0.005-27.673 8.617-37.182 13.808C12.309 57.004 6.293 62.866 6.25 62.903c-0.502 0.433-0.559 1.189-0.125 1.693C6.557 65.098 7.315 65.153 7.817 64.722z" fill="#4686e7" data-fill-palette-color="accent"></path></g><g fill="#4686e7" data-fill-palette-color="accent"><path d="M61.06 54.809h-1c-0.001 3.208-1.298 6.103-3.399 8.206-2.104 2.102-4.998 3.398-8.207 3.399-3.208-0.001-6.104-1.298-8.207-3.399-2.102-2.104-3.399-4.998-3.399-8.206 0-3.208 1.298-6.103 3.399-8.207 2.104-2.102 4.999-3.399 8.207-3.399 3.208 0 6.103 1.297 8.207 3.399 2.102 2.104 3.398 4.999 3.399 8.207H61.06h1c-0.001-7.515-6.091-13.605-13.606-13.606-7.515 0-13.606 6.091-13.606 13.606 0 7.515 6.092 13.604 13.606 13.605 7.515-0.001 13.605-6.091 13.606-13.605H61.06z" fill="#4686e7" data-fill-palette-color="accent"></path><path d="M53.256 56.609c-2.321 0-4.202-1.881-4.202-4.202 0-2.128 1.587-3.868 3.64-4.145-1.221-0.793-2.675-1.258-4.24-1.258-4.31 0-7.804 3.494-7.804 7.804s3.494 7.804 7.804 7.804c4.119 0 7.483-3.192 7.776-7.235C55.469 56.139 54.418 56.609 53.256 56.609z" fill="#4686e7" data-fill-palette-color="accent"></path><polyline points="36.697,51.543 46.302,55.145 47.004,53.271 37.399,49.67  " fill="#4686e7" data-fill-palette-color="accent"></polyline><polyline points="35.958,57.604 46.763,56.403 46.542,54.415 35.737,55.615  " fill="#4686e7" data-fill-palette-color="accent"></polyline><polyline points="39.457,46.485 46.309,55.268 47.886,54.037 41.034,45.255  " fill="#4686e7" data-fill-palette-color="accent"></polyline><polyline points="38.804,62.243 47.805,56.241 46.695,54.577 37.694,60.579  " fill="#4686e7" data-fill-palette-color="accent"></polyline><polyline points="43.301,66.053 48.735,55.881 46.971,54.938 41.537,65.109  " fill="#4686e7" data-fill-palette-color="accent"></polyline><polyline points="48.853,67.414 48.853,55.409 46.853,55.409 46.853,67.414  " fill="#4686e7" data-fill-palette-color="accent"></polyline></g><path d="M39 44c0 0 8.404-4.802 8.404-12.006 0 0 1.2 7.204-1.201 9.605C43.802 44 39 44 39 44z" fill="#4686e7" data-fill-palette-color="accent"></path><path d="M47.746 40.846c0 0 9.076-3.364 10.254-10.471 0 0 0.007 7.303-2.755 9.279C52.484 41.631 47.746 40.846 47.746 40.846z" fill="#4686e7" data-fill-palette-color="accent"></path><path d="M55 40.38c0 0 9.369-2.429 11.259-9.38 0 0-0.731 7.266-3.679 8.953C59.634 41.641 55 40.38 55 40.38z" fill="#4686e7" data-fill-palette-color="accent"></path><path d="M63.744 40.549c0 0 9.368-2.432 11.256-9.384 0 0-0.729 7.267-3.676 8.955C68.378 41.808 63.744 40.549 63.744 40.549z" fill="#4686e7" data-fill-palette-color="accent"></path><path d="M70 42.075c0 0 9.679 0.13 13.337-6.075 0 0-2.624 6.815-5.912 7.664C74.138 44.514 70 42.075 70 42.075z" fill="#4686e7" data-fill-palette-color="accent"></path><path d="M78 45.725c0 0 9.617-1.104 12.455-7.725 0 0-2.114 7.864-5.268 9.125C82.035 48.387 78 45.725 78 45.725z" fill="#4686e7" data-fill-palette-color="accent"></path><path d="M83.866 50.329c0 0 9.516-1.776 11.882-8.58 0 0-2.187 8.152-5.243 9.631C87.448 52.859 83.866 50.329 83.866 50.329z" fill="#4686e7" data-fill-palette-color="accent"></path><path d="M86.271 52.801c5.661 2.017 8.396 2.033 11.729-7.384 0 0-1.729 11.824-5 12.739C89.73 59.073 86.271 52.801 86.271 52.801z" fill="#4686e7" data-fill-palette-color="accent"></path><path d="M2.232 48.206c0 0 26.506-25.223 49.223-27.614 22.812-2.401 27.613 2.401 31.215 4.803 0 0-13.205-7.204-32.415-1.201-13.066 4.083-21.611 9.605-36.018 20.41C10.162 47.66 3.433 48.206 2.232 48.206z" fill="#4686e7" data-fill-palette-color="accent"></path></svg></g></svg></g></svg></g></svg></g></svg></g><g></g></svg></g><defs></defs></svg><rect width="95.481" height="58.10571144186584" fill="none" stroke="none" visibility="hidden"></rect></g></svg></g></svg>